<mxfile host="65bd71144e">
    <diagram id="aGEhEcKIQwWKC8-lZaDE" name="Page-1">
        <mxGraphModel dx="1904" dy="1739" grid="1" gridSize="10" guides="1" tooltips="1" connect="1" arrows="1" fold="1" page="1" pageScale="1" pageWidth="850" pageHeight="1100" math="0" shadow="0">
            <root>
                <mxCell id="0"/>
                <mxCell id="1" parent="0"/>
                <mxCell id="2" value="Route Anatomija" style="text;html=1;strokeColor=none;fillColor=none;align=center;verticalAlign=middle;whiteSpace=wrap;rounded=0;fontSize=21;" vertex="1" parent="1">
                    <mxGeometry x="30" y="20" width="180" height="30" as="geometry"/>
                </mxCell>
                <mxCell id="4" value="GET&amp;nbsp; manoPuslapis.lt /api/users&amp;nbsp;" style="text;html=1;strokeColor=none;fillColor=none;align=center;verticalAlign=middle;whiteSpace=wrap;rounded=0;fontSize=31;" vertex="1" parent="1">
                    <mxGeometry x="30" y="120" width="700" height="30" as="geometry"/>
                </mxCell>
                <mxCell id="5" value="" style="rounded=0;whiteSpace=wrap;html=1;fontSize=31;fillColor=none;" vertex="1" parent="1">
                    <mxGeometry x="230" y="105" width="220" height="60" as="geometry"/>
                </mxCell>
                <mxCell id="6" value="" style="rounded=0;whiteSpace=wrap;html=1;fontSize=31;fillColor=none;" vertex="1" parent="1">
                    <mxGeometry x="140" y="105" width="80" height="60" as="geometry"/>
                </mxCell>
                <mxCell id="7" value="" style="rounded=0;whiteSpace=wrap;html=1;fontSize=31;fillColor=none;" vertex="1" parent="1">
                    <mxGeometry x="460" y="105" width="150" height="60" as="geometry"/>
                </mxCell>
                <mxCell id="8" value="GET&amp;nbsp; manoPuslapis.lt /api/users&amp;nbsp; /1" style="text;html=1;strokeColor=none;fillColor=none;align=center;verticalAlign=middle;whiteSpace=wrap;rounded=0;fontSize=31;" vertex="1" parent="1">
                    <mxGeometry x="50" y="235" width="690" height="30" as="geometry"/>
                </mxCell>
                <mxCell id="9" value="" style="rounded=0;whiteSpace=wrap;html=1;fontSize=31;fillColor=none;" vertex="1" parent="1">
                    <mxGeometry x="230" y="220" width="220" height="60" as="geometry"/>
                </mxCell>
                <mxCell id="10" value="" style="rounded=0;whiteSpace=wrap;html=1;fontSize=31;fillColor=none;" vertex="1" parent="1">
                    <mxGeometry x="140" y="220" width="80" height="60" as="geometry"/>
                </mxCell>
                <mxCell id="11" value="" style="rounded=0;whiteSpace=wrap;html=1;fontSize=31;fillColor=none;" vertex="1" parent="1">
                    <mxGeometry x="460" y="220" width="140" height="60" as="geometry"/>
                </mxCell>
                <mxCell id="12" value="" style="rounded=0;whiteSpace=wrap;html=1;fontSize=31;fillColor=none;" vertex="1" parent="1">
                    <mxGeometry x="610" y="220" width="40" height="60" as="geometry"/>
                </mxCell>
                <mxCell id="13" value="POST&amp;nbsp; manoPuslapis.lt /api/users&amp;nbsp;" style="text;html=1;strokeColor=none;fillColor=none;align=center;verticalAlign=middle;whiteSpace=wrap;rounded=0;fontSize=31;" vertex="1" parent="1">
                    <mxGeometry x="30" y="355" width="690" height="30" as="geometry"/>
                </mxCell>
                <mxCell id="14" value="" style="rounded=0;whiteSpace=wrap;html=1;fontSize=31;fillColor=none;" vertex="1" parent="1">
                    <mxGeometry x="230" y="340" width="210" height="60" as="geometry"/>
                </mxCell>
                <mxCell id="15" value="" style="rounded=0;whiteSpace=wrap;html=1;fontSize=31;fillColor=none;" vertex="1" parent="1">
                    <mxGeometry x="130" y="340" width="100" height="60" as="geometry"/>
                </mxCell>
                <mxCell id="16" value="" style="rounded=0;whiteSpace=wrap;html=1;fontSize=31;fillColor=none;" vertex="1" parent="1">
                    <mxGeometry x="465" y="340" width="140" height="60" as="geometry"/>
                </mxCell>
                <mxCell id="18" value="{&lt;br&gt;&lt;div&gt;&lt;span&gt;&amp;nbsp;&quot;name&quot;: &quot;James&quot;&lt;/span&gt;&lt;/div&gt;}" style="text;html=1;strokeColor=default;fillColor=none;align=left;verticalAlign=middle;whiteSpace=wrap;rounded=0;fontSize=31;" vertex="1" parent="1">
                    <mxGeometry x="130" y="430" width="270" height="170" as="geometry"/>
                </mxCell>
                <mxCell id="21" style="edgeStyle=none;html=1;entryX=0;entryY=0.5;entryDx=0;entryDy=0;fontSize=21;" edge="1" parent="1" source="20" target="6">
                    <mxGeometry relative="1" as="geometry"/>
                </mxCell>
                <mxCell id="22" style="edgeStyle=none;html=1;entryX=0.092;entryY=0.019;entryDx=0;entryDy=0;entryPerimeter=0;fontSize=21;" edge="1" parent="1" source="20" target="10">
                    <mxGeometry relative="1" as="geometry"/>
                </mxCell>
                <mxCell id="23" style="edgeStyle=none;html=1;entryX=0;entryY=0;entryDx=0;entryDy=0;fontSize=21;" edge="1" parent="1" source="20" target="15">
                    <mxGeometry relative="1" as="geometry"/>
                </mxCell>
                <mxCell id="20" value="Metodas" style="text;html=1;strokeColor=#001DBC;fillColor=#0050ef;align=center;verticalAlign=middle;whiteSpace=wrap;rounded=0;fontSize=21;fontColor=#ffffff;" vertex="1" parent="1">
                    <mxGeometry x="-140" y="210" width="130" height="50" as="geometry"/>
                </mxCell>
                <mxCell id="25" style="edgeStyle=none;html=1;entryX=0.397;entryY=-0.036;entryDx=0;entryDy=0;entryPerimeter=0;fontSize=21;" edge="1" parent="1" source="24" target="5">
                    <mxGeometry relative="1" as="geometry"/>
                </mxCell>
                <mxCell id="24" value="Domain Name" style="text;html=1;strokeColor=#001DBC;fillColor=#0050ef;align=center;verticalAlign=middle;whiteSpace=wrap;rounded=0;fontSize=21;fontColor=#ffffff;" vertex="1" parent="1">
                    <mxGeometry x="230" y="-50" width="130" height="60" as="geometry"/>
                </mxCell>
                <mxCell id="27" style="edgeStyle=none;html=1;entryX=0.332;entryY=0.019;entryDx=0;entryDy=0;entryPerimeter=0;fontSize=21;" edge="1" parent="1" source="26" target="7">
                    <mxGeometry relative="1" as="geometry"/>
                </mxCell>
                <mxCell id="26" value="Endpoint" style="text;html=1;strokeColor=#001DBC;fillColor=#0050ef;align=center;verticalAlign=middle;whiteSpace=wrap;rounded=0;fontSize=21;fontColor=#ffffff;" vertex="1" parent="1">
                    <mxGeometry x="460" y="-50" width="130" height="60" as="geometry"/>
                </mxCell>
                <mxCell id="28" value="" style="rounded=0;whiteSpace=wrap;html=1;fontSize=31;fillColor=none;" vertex="1" parent="1">
                    <mxGeometry x="520" y="120" width="80" height="35" as="geometry"/>
                </mxCell>
                <mxCell id="30" style="edgeStyle=none;html=1;entryX=1;entryY=0;entryDx=0;entryDy=0;fontSize=21;" edge="1" parent="1" source="29" target="28">
                    <mxGeometry relative="1" as="geometry"/>
                </mxCell>
                <mxCell id="29" value="Resource" style="text;html=1;strokeColor=#001DBC;fillColor=#0050ef;align=center;verticalAlign=middle;whiteSpace=wrap;rounded=0;fontSize=21;fontColor=#ffffff;" vertex="1" parent="1">
                    <mxGeometry x="640" y="10" width="130" height="60" as="geometry"/>
                </mxCell>
                <mxCell id="32" style="edgeStyle=none;html=1;entryX=1;entryY=0.25;entryDx=0;entryDy=0;fontSize=21;" edge="1" parent="1" source="31" target="12">
                    <mxGeometry relative="1" as="geometry"/>
                </mxCell>
                <mxCell id="31" value="URL param" style="text;html=1;strokeColor=#001DBC;fillColor=#0050ef;align=center;verticalAlign=middle;whiteSpace=wrap;rounded=0;fontSize=21;fontColor=#ffffff;" vertex="1" parent="1">
                    <mxGeometry x="770" y="150" width="130" height="60" as="geometry"/>
                </mxCell>
                <mxCell id="34" style="edgeStyle=none;html=1;fontSize=21;" edge="1" parent="1" source="33" target="18">
                    <mxGeometry relative="1" as="geometry"/>
                </mxCell>
                <mxCell id="33" value="REQ BODY" style="text;html=1;strokeColor=#001DBC;fillColor=#0050ef;align=center;verticalAlign=middle;whiteSpace=wrap;rounded=0;fontSize=21;fontColor=#ffffff;" vertex="1" parent="1">
                    <mxGeometry x="-140" y="460" width="130" height="50" as="geometry"/>
                </mxCell>
            </root>
        </mxGraphModel>
    </diagram>
</mxfile>